<?xml version="1.0" encoding="UTF-8"?>
<!DOCTYPE svg PUBLIC "-//W3C//DTD SVG 1.1//EN" "http://www.w3.org/Graphics/SVG/1.1/DTD/svg11.dtd">
<!-- Creator: CorelDRAW (Wersja próbna) -->
<svg xmlns="http://www.w3.org/2000/svg" xml:space="preserve" width="210mm" height="84.6666mm" version="1.1" style="shape-rendering:geometricPrecision; text-rendering:geometricPrecision; image-rendering:optimizeQuality; fill-rule:evenodd; clip-rule:evenodd"
viewBox="0 0 21000 8466.66"
 xmlns:xlink="http://www.w3.org/1999/xlink"
 xmlns:xodm="http://www.corel.com/coreldraw/odm/2003">
 <defs>
  <style type="text/css">
   <![CDATA[
    .fil0 {fill:#0051A1;fill-rule:nonzero}
   ]]>
  </style>
 </defs>
 <g id="Warstwa_x0020_1">
  <metadata id="CorelCorpID_0Corel-Layer"/>
  <path class="fil0" d="M2790.94 6251.94l-899.5 0 0 -3375.45 899.5 0 0 385.57 -401.31 0 0 2604.3 401.31 0 0 385.58zm2161.66 -2939.53l0 -358.05c329.16,-298.85 734.09,-448.04 1213.87,-448.04 463.66,0 872.87,149.19 1228.07,448.04l0 355.21c-371.78,-280.39 -780.98,-420.1 -1228.07,-420.1 -446.61,0 -851.1,140.66 -1213.87,422.94zm1220.67 611.88c-559.71,0 -580.11,-763.3 0,-763.3 48.25,0 95.11,5.86 139.04,17.45 -166.24,70.74 -129.32,332.67 92.73,332.67 77.45,0 145.79,-33.35 177.56,-94.7 12.21,37.19 18.86,78.17 18.86,123 0,246.53 -195.17,384.88 -428.19,384.88zm-519.45 253.54l-417.26 1448.91 -636.99 0 -289.34 -1150.88c-18.99,-76.61 -30.12,-160.44 -32.76,-251.41l-11.13 0c-9.14,100.17 -21.59,181.35 -38.61,243.52l-310.97 1158.77 -628.49 0 -554.51 -1964.03 617.37 0 270.38 1281.2c13.09,60.22 22.91,132.93 28.8,218.66l11.78 0c6.56,-89.67 17.69,-164.98 34.71,-226.5l337.15 -1273.36 577.42 0 303.12 1281.2c7.85,32.11 16.34,106.06 26.82,222.6l13.73 0c5.89,-73.99 16.39,-148.59 30.15,-222.6l207.11 -1039.39c136.9,117.04 292.61,210.21 461.52,273.31zm819.86 1448.91l-605.56 0 0 -1386.85c98.53,20.66 200.37,31.6 304.57,31.6 102.94,0 203.57,-10.66 300.99,-30.86l0 1386.11zm2210.02 0l-606.24 0 0 -270.39 -7.23 0c-138.11,212.12 -341.05,318.18 -608.18,318.18 -245.45,0 -443.19,-86.44 -592.43,-259.91 -149.95,-172.8 -224.61,-415.02 -224.61,-726.01 0,-201.67 31.89,-378.34 95.49,-530.18 267.51,-110.83 499.51,-297.61 672.61,-535.57 41.15,-5.28 83.65,-7.94 127.54,-7.94 253.34,0 429.42,90.38 529.58,272.38l7.23 0 0 -1167.95 606.24 0 0 2907.39zm-594.46 -955.15l0 -147.96c0,-127.66 -37.34,-233.72 -111.3,-318.15 -73.98,-84.49 -170.85,-126.39 -289.34,-126.39 -134.22,0 -239.63,52.38 -314.92,157.79 -75.29,106.06 -113.25,250.76 -113.25,434.71 0,172.82 36.66,305.73 109.35,398.71 73.3,93.57 174.12,140.06 303.09,140.06 123.08,0 223.24,-49.09 300.48,-147.31 77.26,-98.87 115.89,-229.14 115.89,-391.46zm2438.41 955.15l-1763 0 0 -251.4 985.96 -1265.48 -887.76 0 0 -447.15 1656.96 0 0 299.19 -934.18 1217.69 942.02 0 0 447.15zm-208.18 -2894.25l-600.32 619.29 -437.3 0 498.86 -619.29 538.76 0zm3155.93 930.22l-565.64 1964.03 -636.98 0 -289.36 -1150.88c-18.97,-76.61 -30.1,-160.44 -32.74,-251.41l-11.15 0c-9.12,100.17 -21.57,181.35 -38.59,243.52l-310.97 1158.77 -628.49 0 -554.51 -1964.03 617.37 0 270.38 1281.2c13.08,60.22 22.91,132.93 28.8,218.66l11.78 0c6.54,-89.67 17.69,-164.98 34.71,-226.5l337.15 -1273.36 577.42 0 303.12 1281.2c7.84,32.11 16.34,106.06 26.82,222.6l13.73 0c5.89,-73.99 16.38,-148.59 30.15,-222.6l255.3 -1281.2 561.7 0zm372.3 -310.93c-102.1,0 -185.9,-30.1 -250.71,-91.02 -65.46,-60.88 -98.22,-134.86 -98.22,-223.25 0,-90.97 32.76,-164.96 98.22,-222.54 64.81,-57.62 148.61,-86.44 250.71,-86.44 104.11,0 187.89,28.82 252.7,86.44 64.18,57.58 96.92,131.57 96.92,222.54 0,91.67 -32.74,167.63 -96.92,226.55 -64.81,58.27 -148.59,87.72 -252.7,87.72zm299.19 2274.96l-605.57 0 0 -1964.03 605.57 0 0 1964.03zm2052.88 -809.16l-1281.2 0c20.31,284.77 200.32,427.47 538.8,427.47 216.06,0 405.9,-51.02 569.58,-153.18l0 437.3c-181.35,96.92 -417.03,145.36 -707.74,145.36 -316.82,0 -562.98,-87.74 -738.44,-263.85 -174.81,-175.4 -262.55,-420.93 -262.55,-735.2 0,-326 94.28,-584.59 284.16,-775.08 189.21,-190.51 421.58,-285.48 697.86,-285.48 286.1,0 508.01,85.14 664.5,254.71 156.49,170.22 235.03,401.31 235.03,692.62l0 255.33zm-561.7 -372.52c0,-280.83 -113.94,-421.58 -341.74,-421.58 -96.91,0 -181.34,39.93 -252.04,120.44 -71.35,80.53 -113.94,181.35 -129.62,301.14l723.4 0zm92.29 1948.93c-30.77,9.83 -67.41,19.03 -109.96,25.57 -43.24,7.19 -87.09,11.13 -131.62,11.13 -108.65,0 -195.73,-28.82 -260.54,-85.79 -65.46,-56.97 -98.22,-139.45 -98.22,-248.11 0,-39.94 7.24,-81.18 20.98,-123.73 14.38,-43.23 34.69,-85.13 61.52,-127.01 26.85,-41.25 60.25,-80.5 99.5,-117.84 39.95,-36.66 85.13,-70.72 136.17,-101.47l297.89 0c-100.17,72.65 -174.16,144 -221.95,214.05 -47.79,69.42 -72,130.97 -72,184.65 0,42.55 11.13,73.96 32.76,94.93 21.57,21.58 51.02,32.06 88.37,32.06 24.23,0 49.74,-1.96 76.59,-5.9 26.83,-3.9 53.03,-9.79 78.56,-17.03l1.95 264.49zm2575.95 -767.25l-727.36 0 -627.14 -974.12 -7.9 0 0 974.12 -605.57 0 0 -2907.39 605.57 0 0 1850.77 7.9 0 585.25 -907.41 718.82 0 -703.78 922.45 754.21 1041.58zm787.99 625.2l-903.42 0 0 -385.58 404.54 0 0 -2604.3 -404.54 0 0 -385.57 903.42 0 0 3375.45z"/>
 </g>
</svg>
