<?xml version="1.0" encoding="UTF-8"?>
<!DOCTYPE svg PUBLIC "-//W3C//DTD SVG 1.1//EN" "http://www.w3.org/Graphics/SVG/1.1/DTD/svg11.dtd">
<!-- Creator: CorelDRAW (Wersja próbna) -->
<svg xmlns="http://www.w3.org/2000/svg" xml:space="preserve" width="210mm" height="84.6666mm" version="1.1" style="shape-rendering:geometricPrecision; text-rendering:geometricPrecision; image-rendering:optimizeQuality; fill-rule:evenodd; clip-rule:evenodd"
viewBox="0 0 21000 8466.66"
 xmlns:xlink="http://www.w3.org/1999/xlink"
 xmlns:xodm="http://www.corel.com/coreldraw/odm/2003">
 <defs>
  <style type="text/css">
   <![CDATA[
    .fil0 {fill:#0051A1;fill-rule:nonzero}
   ]]>
  </style>
 </defs>
 <g id="Warstwa_x0020_1">
  <metadata id="CorelCorpID_0Corel-Layer"/>
  <path class="fil0" d="M10491.48 7536.39c-2539.18,0 -2631.7,-3462.74 0,-3462.74 218.86,0 431.49,26.54 630.74,79.13 -754.19,320.93 -586.66,1509.2 420.67,1509.2 351.34,0 661.41,-151.3 805.49,-429.68 55.43,168.81 85.58,354.67 85.58,558.04 0,1118.4 -885.39,1746.05 -1942.48,1746.05zm-5537.57 -2775.86l0 -1624.32c1493.22,-1355.71 3330.26,-2032.5 5506.73,-2032.5 2103.42,0 3959.78,676.79 5571.19,2032.5l0 1611.44c-1686.62,-1271.95 -3542.95,-1905.76 -5571.19,-1905.76 -2026.08,0 -3860.96,638.11 -5506.73,1918.64z"/>
 </g>
</svg>
