<svg xmlns="http://www.w3.org/2000/svg" viewBox="7898.0 4895.5 3264.0 3264.0" width="512" height="512" role="img" aria-label="Widźwięk">
  <path fill="#0051A1" fill-rule="nonzero" d="M9528.28 7220.49c-548.67,0 -568.66,-748.22 0,-748.22 47.28,0 93.23,5.74 136.28,17.1 -162.96,69.34 -126.76,326.1 90.9,326.1 75.91,0 142.92,-32.7 174.05,-92.85 11.98,36.48 18.49,76.64 18.49,120.58 0,241.67 -191.31,377.29 -419.72,377.29z"/>
  <g transform="matrix(2.64845E-14 1 -1 2.64845E-14 23625.1 -4884.42)">
    <g transform="translate(10500,14850) scale(2.78554,-2.78554)"><path fill="#0051A1" d="M360.835 -159.168l-126.001 0c-105.168,115.834 -157.668,258.334 -157.668,427.167 0,163.168 52.4997,307.168 157.668,432.168l124.999 0c-98.6667,-130.833 -147.835,-274.834 -147.835,-432.168 0,-157.165 49.5021,-299.497 148.836,-427.167z"/></g>
  </g>
</svg>